<svg id="Layer_1" data-name="Layer 1" xmlns="http://www.w3.org/2000/svg" viewBox="0 0 553.86 372.84"><title>cart</title><path d="M560.37,246.06h-95.2L360.88,137.83c-8-8.41-19.64-9.94-25.93-3.91l-3.89,3.93c-6.3,6-4.9,17,3.15,25.4l79.88,82.82H203.56l79.87-82.72c8-8.41,9.44-19.69,3.15-25.7l-3.89-3.53c-6.3-6-17.91-4.8-25.94,3.61L152.47,246.06H54.68c-13.3,0-24.08,7.83-24.08,21.42S41.38,288.9,54.68,288.9h3L92.33,463.69c0,20.4,16.62,39.41,37.11,39.41H488.19c20.49,0,31.76-20.29,37.11-39.41L559.93,288.9h0.44c13.31,0,24.09-7.83,24.09-21.42S573.68,246.06,560.37,246.06Z" transform="translate(-30.6 -130.26)"/></svg>